<svg xmlns="http://www.w3.org/2000/svg" viewBox="0 0 277.8 367.92"><defs><style>.cls-1{fill:#fff;}</style></defs><g id="Layer_2" data-name="Layer 2"><g id="Layer_1-2" data-name="Layer 1"><path class="cls-1" d="M243,367.92h-5l.43-.76c.44-.75.86-1.56,1.25-2.34a22.1,22.1,0,0,1,3.15-5c19.29-18.82,21.26-44.54,5.4-70.58-32-49.37-88.71-85.52-168.61-107.43a11.92,11.92,0,0,1-3.93-2.27c-.54-.42-1.1-.85-1.66-1.21l-.5-.32.4-.43c.5-.55,1-1.21,1.46-1.84,1.08-1.46,2.2-3,3.74-3.55,8.07-3,12.19-8.67,12.26-16.83.26-29.41.47-61,.28-92.34-.06-10.35-5-18.82-14.7-25.16l-1.12-.73,1.32-.19c1.44-.19,2.76-.3,4-.41a21.75,21.75,0,0,0,6.45-1.13,283.68,283.68,0,0,0,27-12.24c5.18-2.69,10.21-5.88,15.08-9C138.2,8.83,147,3.27,156.84.12L157.2,0l.21.32c1.14,1.73,1.55,3.2,1.25,4.47-.43,1.79-2.17,2.78-3.7,3.66l-.6.34c-11.05,6.52-17.29,16.1-18.55,28.47-.65,6.41-.8,12.78-.82,20.38-.08,29.11-.14,60.15.06,91.47a45,45,0,0,0,2.22,14.44,12.92,12.92,0,0,0,7,7.78,14.25,14.25,0,0,0,11.52-.26,10.6,10.6,0,0,0,5.68-15c-.42-1-.84-1.89-1.44-3.19l-1.65-3.65,1.05.32c42.44,12.82,72.79,33.94,92.79,64.54,16.3,23.85,25.61,53,25.55,80.12-.06,21.65-6.12,52-34.67,73.59Zm-3.32-1h3c46.49-35.32,41-105.13,8.76-152.26-19.71-30.16-49.54-51-91.19-63.82l.74,1.64c.6,1.3,1,2.24,1.45,3.19a12.4,12.4,0,0,1,.57,9.63,12.19,12.19,0,0,1-6.77,6.68,15.38,15.38,0,0,1-12.32.27,14,14,0,0,1-7.58-8.37,46.47,46.47,0,0,1-2.27-14.77c-.2-31.32-.14-62.36-.06-91.47,0-7.63.17-14,.82-20.49,1.3-12.7,7.7-22.53,19.05-29.22l.6-.35c1.42-.81,2.9-1.65,3.22-3a4.56,4.56,0,0,0-.9-3.37c-9.59,3.13-18.21,8.58-26.55,13.86-4.88,3.09-9.93,6.28-15.14,9A286.46,286.46,0,0,1,88,36.32a22.56,22.56,0,0,1-6.75,1.21c-.85.07-1.73.14-2.65.24,9.26,6.45,14,14.94,14,25.24.19,31.4,0,63-.28,92.36C92.28,164,87.93,170,79.44,173.13c-1.26.47-2.29,1.86-3.29,3.2-.36.5-.74,1-1.14,1.48.42.3.84.62,1.25.93a10.83,10.83,0,0,0,3.58,2.1c80.15,22,137.07,58.27,169.2,107.87,16.12,26.48,14.1,52.65-5.53,71.81a20.73,20.73,0,0,0-3,4.75C240.26,365.81,240,366.37,239.68,366.92Z"/><path class="cls-1" d="M1.57,253l-.23-.36C.17,250.78-.22,249.28.12,248c.54-2.08,2.85-3.37,5.79-5,7.25-4,18.22-10.13,18.65-34.43.47-29.78.26-60.08.06-89.38v-1C24.56,110.44,24,103.69,18,99a19.92,19.92,0,0,0-2.93-1.83c-2.42-1.35-5.16-2.87-5.56-5.33l0-.14.05-.12c1.14-2.95,4.25-4.25,9.25-3.84h6.14c17,0,34.5.07,51.75.28a6.71,6.71,0,0,1,3.45,1.55,16.22,16.22,0,0,0,1.43.91l.53.29-.39.47a14.56,14.56,0,0,0-1,1.47c-.79,1.21-1.61,2.46-2.78,2.77-8.18,2.15-11.69,7.24-11.72,17-.08,22.83-.21,45.2-1,67.88-.9,25.33-10.63,44.45-28.91,56.82-7.75,5-16.56,8.51-25.08,11.89-3,1.21-6.16,2.46-9.21,3.75Zm9-161.2c.4,1.91,2.76,3.22,5,4.48a20.38,20.38,0,0,1,3.07,1.93c6.34,4.93,6.91,11.93,7,19.89v1c.2,29.3.41,59.6-.06,89.4-.45,24.88-12.17,31.39-19.17,35.28-2.72,1.52-4.87,2.71-5.3,4.38A4.84,4.84,0,0,0,2,251.77c2.93-1.24,5.93-2.43,8.83-3.59,8.48-3.37,17.24-6.85,24.9-11.79,18-12.18,27.57-31,28.46-56,.81-22.66.94-45,1-67.84,0-10.17,3.88-15.72,12.47-18,.79-.21,1.51-1.3,2.19-2.35.24-.37.49-.74.74-1.09l-1-.68a6,6,0,0,0-2.89-1.37c-17.25-.21-34.78-.24-51.75-.28H18.76C14.29,88.4,11.54,89.43,10.54,91.83Z"/><path class="cls-1" d="M192.2,106.37l-.08-.49c-.08-.44-.18-.87-.27-1.3a13.55,13.55,0,0,1-.43-2.9l0-5.64c-.05-13.39-.09-27.24.12-40.86,0-2.29,1.3-5.53,3.13-6.71,12.06-8,20.8-18,26-29.86l.24-.54,2.26,1.46V80.44l7.72-1.86,1.61,1.59-.2.34a22.51,22.51,0,0,0-1.07,2.08c-.78,1.63-1.58,3.32-3,4.16-8.61,5.19-17.52,10.21-26.13,15.06l-7.14,4a3.23,3.23,0,0,1-1.24.3c-.28,0-.61.07-1,.14Zm29.11-86.83C216,31.31,207.24,41.32,195.2,49.31c-1.54,1-2.65,3.9-2.68,5.88-.21,13.61-.17,27.46-.12,40.85l0,5.63a13,13,0,0,0,.4,2.69c.07.29.13.57.19.86l.59-.07a2.56,2.56,0,0,0,.87-.18c2.37-1.35,4.76-2.69,7.14-4,8.6-4.85,17.5-9.87,26.1-15,1.13-.68,1.86-2.23,2.57-3.73.29-.61.59-1.24.92-1.83l-.65-.65-8.42,2V20.07Z"/><path class="cls-1" d="M149.86,105.62l-.11-.73c-.15-1-.31-1.88-.46-2.7a25.17,25.17,0,0,1-.55-4.32c-.07-13.49-.05-27.2,0-40.46V53.87c0-3,0-6.42,3.84-8,9.7-3.93,15.46-12,20.24-20.08a33,33,0,0,1,6.61-8.42l.83-.74V78.88l8-2.81,1.66,1.4-.18.35a23.87,23.87,0,0,0-.92,2.22c-.65,1.75-1.32,3.56-2.68,4.4-8.56,5.26-17.19,10.22-26.32,15.48q-4.56,2.61-9.25,5.33Zm-.15-51.74v3.53c0,13.26,0,27,0,40.45a24.69,24.69,0,0,0,.53,4.15c.12.63.24,1.29.36,2q4.37-2.53,8.62-5c9.13-5.25,17.75-10.21,26.29-15.46,1.07-.66,1.69-2.31,2.28-3.9.24-.66.49-1.34.78-2L188,77.2l-8.75,3.09V18.92a33.83,33.83,0,0,0-5.58,7.4c-4.87,8.27-10.75,16.47-20.73,20.51-3.2,1.29-3.21,4.09-3.21,7.05Z"/></g></g></svg>