<svg xmlns="http://www.w3.org/2000/svg" viewBox="0 0 164.08 257.03"><defs><style>.cls-1{fill:#090515;}</style></defs><g id="Layer_2" data-name="Layer 2"><g id="Layer_1-2" data-name="Layer 1"><path class="cls-1" d="M9.07,257,7,257l-.12-.33c-.14-.39-.31-.79-.49-1.18a8.39,8.39,0,0,1-.87-2.79c-1.65-26.19,7.72-42.2,29.49-50.36,5.12-1.92,9.92-5.08,14.56-8.13,1.79-1.18,3.63-2.39,5.48-3.52a46.21,46.21,0,0,0,4.51-3.33c.6-.49,1.17-1,1.72-1.37l.43-.33.3.45c1.83,2.81,3.5,5.94,5.27,9.26,6.15,11.49,12.52,23.42,26,23.18,3.83-.08,5.62-1.87,5.62-5.65q0-68,0-136c0-2.08-.39-3.41-1.24-4.19s-2.25-1.09-4.3-.93a116.58,116.58,0,0,1-17.53,0c-2.11-.16-3.39.08-4.16.79a4.49,4.49,0,0,0-1,3.38q0,7.62,0,15.23c0,9.1,0,18.51,0,27.76.05,6.71,3.32,11.23,9.72,13.44l.69.23a6.18,6.18,0,0,1,2.64,1.3c.71.74,2.34,2.6,2.07,4.07-.23,1.24-2,2.21-3.44,2.91a4.56,4.56,0,0,1-2.33.22c-.28,0-.57,0-.85,0H65.63c-17.33,0-35.25,0-52.88-.1a11.59,11.59,0,0,1-4.4-1.26c-.63-.27-1.29-.56-1.92-.77l-.67-.23.44-.56c.44-.55.85-1.18,1.25-1.79a10.82,10.82,0,0,1,3.25-3.64c6.75-4,10.17-9.87,10.17-17.61,0-2.52,0-5,0-7.57,0-10.78.07-21.94-.71-32.83a43.47,43.47,0,0,0-5.72-17.55c-1.68-3-6.39-4.93-9.79-6.14C.75,49.67,0,47.5,0,44c0-4.19,2.48-4.82,5.47-5.17,30-3.39,46.28-16.42,64.32-37.77l.89-1V1.37q0,7.94,0,15.87c0,10.4,0,21.14-.1,31.7,0,2.38.34,3.82,1.2,4.66s2.16,1.11,4.23,1c6.59-.31,13.49-.16,19,0a4.11,4.11,0,0,0,3.08-.83A4.09,4.09,0,0,0,99,50.67c-.11-3.51-.08-7.07-.06-10.53,0-1.48,0-3,0-4.46v-.83l.73.39c3.24,1.71,6.42,3.53,9.5,5.29,7,4,13.72,7.87,21,10.33s14.64,3.42,22.59,4.47c3.44.45,7,.92,10.52,1.52l.28,0,.1.27c1.77,4.55-1.41,6.79-5.44,9.63-6.24,4.39-15.67,11-15.88,31.6-.09,25.3-.08,51-.07,75.91v23c0,8.51,3.53,14.9,10.78,19.55a9.1,9.1,0,0,1,2.59,3.17c.32.52.64,1.06,1,1.53l.45.61-.74.17c-.59.14-1.22.35-1.83.55a9.84,9.84,0,0,1-4.19.76c-32.7-4.61-61.12,4.2-86.9,26.93l-.32.29-.33-.28a81,81,0,0,0-31.51-16.4c-13.81-3.63-17.42,7.91-20.91,19.07-.36,1.15-.71,2.28-1.07,3.38Zm-1.39-1h.67c.32-1,.64-2,1-3,3.46-11.07,7.38-23.62,22.12-19.74A81.92,81.92,0,0,1,63,249.59c25.92-22.73,54.5-31.53,87.37-26.89a9.1,9.1,0,0,0,3.74-.72c.4-.13.81-.27,1.22-.39-.22-.33-.42-.67-.62-1a8.51,8.51,0,0,0-2.28-2.84c-7.56-4.85-11.24-11.51-11.24-20.39v-23c0-24.88,0-50.61.07-75.92.22-21.08,9.9-27.9,16.31-32.41,4-2.82,6.45-4.54,5.18-8.18-3.41-.58-6.86-1-10.2-1.47-8-1.06-15.56-2-22.79-4.51s-14-6.34-21.12-10.41c-2.84-1.63-5.76-3.3-8.73-4.89,0,1.21,0,2.43,0,3.64,0,3.44,0,7,.06,10.49a5,5,0,0,1-1.1,3.82A4.91,4.91,0,0,1,95,55.58c-5.52-.12-12.39-.27-19,0-2.36.11-3.94-.3-5-1.3s-1.55-2.71-1.51-5.39c.15-10.55.12-21.3.1-31.69q0-7.24,0-14.51C51.81,23.67,35.39,36.44,5.59,39.82,2.82,40.14,1,40.61,1,44s.58,4.92,4,6.14c3.85,1.37,8.5,3.36,10.33,6.59a44.33,44.33,0,0,1,5.84,18c.79,10.94.75,22.11.72,32.91,0,2.53,0,5,0,7.57,0,8.12-3.59,14.33-10.67,18.47A10.11,10.11,0,0,0,8.29,137c-.29.44-.58.89-.89,1.32.45.17.91.37,1.35.56a10.49,10.49,0,0,0,4,1.18c17.62.12,35.54.11,52.87.1H79.24c.3,0,.61,0,.93,0A3.92,3.92,0,0,0,82,140c2.25-1.07,2.81-1.78,2.89-2.19.12-.67-.6-1.95-1.81-3.19a5.4,5.4,0,0,0-2.22-1l-.72-.23C73.29,131,69.79,126.17,69.74,119c-.06-9.26-.06-18.67,0-27.77q0-7.62,0-15.23c0-2,.42-3.26,1.33-4.11s2.5-1.25,4.92-1.06a114.6,114.6,0,0,0,17.38,0c2.37-.19,4,.2,5,1.2s1.56,2.55,1.56,4.92q0,68,0,136c0,4.33-2.22,6.56-6.6,6.65H93c-13.89,0-20.62-12.59-26.57-23.71-1.67-3.12-3.24-6.07-4.94-8.73l-1.28,1a44,44,0,0,1-4.61,3.4c-1.83,1.12-3.67,2.33-5.45,3.51-4.69,3.08-9.53,6.26-14.76,8.23C14,211.27,4.88,227,6.5,252.65a7.44,7.44,0,0,0,.79,2.45C7.42,255.4,7.56,255.71,7.68,256Z"/></g></g></svg>