<svg xmlns="http://www.w3.org/2000/svg" viewBox="0 0 199.21 302.68"><defs><style>.cls-1{fill:#090515;}</style></defs><g id="Layer_2" data-name="Layer 2"><g id="Layer_1-2" data-name="Layer 1"><path class="cls-1" d="M26.69,302.68a19.65,19.65,0,0,1-12.22-4.61C7.25,292.14,2.91,283.8.79,271.83a52.57,52.57,0,0,1,24-53.66c4.32-2.64,8.86-5.07,13.25-7.42L41.32,209c1.72-.93,3.52-1.82,5.25-2.67A82.88,82.88,0,0,0,56.18,201a84.68,84.68,0,0,0,8.93-7.27c1.18-1.06,2.33-2.09,3.47-3.05l.58-.49.22.73c6.48,22.13,23.57,34.48,53.74,38.84.47-31.78.39-64.08.3-95.32,0-20.19-.11-41.06,0-61.6,0-8.26,0-8.26-8-8.3-2.84,0-5.68,0-8.53,0-4.4,0-9,0-13.43,0-2.3,0-3.59.3-4.41,1.11s-1.14,2.08-1.12,4C88,81.38,88,93.31,88,104.85c0,8.62,0,17.52,0,26.28.06,11.65,2.71,15.21,14.19,19a7.27,7.27,0,0,1,3.06,2.7,18.24,18.24,0,0,0,1.19,1.4l.39.4-.45.35a17.23,17.23,0,0,0-1.54,1.37c-1.18,1.14-2.4,2.31-3.75,2.33-22.29.27-46,.35-74.48.26a7.75,7.75,0,0,1-3.69-1.42c-.52-.31-1.05-.62-1.56-.86l-.52-.23.31-.49a20,20,0,0,0,1-2c.76-1.57,1.54-3.19,2.89-3.85,9.45-4.62,13.7-11.72,13.39-22.32-.24-8.09-.37-16.31-.49-24.26-.15-9.4-.3-19.12-.64-28.66C36.9,62.61,31.11,54.22,20.13,50l-.41-.16C18,49.16,16,48.4,14.87,47a4.29,4.29,0,0,1-.57-4.43A6.27,6.27,0,0,1,19.43,39c29.13-2.38,51.73-15.1,67.2-37.81L87.44,0l.1,1.45c.64,9.62.54,19.44.45,28.93,0,3.95-.09,8-.07,12,0,2.05.29,3.28,1,4s1.83,1,3.52.94c7.74-.18,15.91-.19,26.51,0a4.56,4.56,0,0,0,3.4-1c.7-.71,1-1.89.94-3.69-.11-3.45-.09-6.94-.06-10.65,0-1.67,0-3.41,0-5.24v-.92l.77.51c.66.43,1.3.8,1.9,1.16a16.85,16.85,0,0,1,3.24,2.26c16.83,16.84,38,19.52,64.65,18.35,1.28.19,5.54,1.58,5.37,2.83-.41,3.09-1,6.48-2.89,7.6-15,8.86-22.34,22.9-22.29,42.91,0,24,.25,48.46.45,72.08q.1,11.94.2,23.86c.1,13.45,5.64,21.08,16.92,23.33h0c1.76.35,3.46,3.29,3.9,5.24a3.39,3.39,0,0,1-.32,2.68c-.84,1.28-2.63,1.6-4.35,1.91l-.11,0c-4.91.9-9.92,1.76-14.77,2.59-12.23,2.09-24.88,4.26-37.12,7.22-22,5.7-42,18.57-54.85,35.31l-.34.44-.4-.38c-2.15-2.05-4.12-4.09-6-6.06-3.91-4-7.6-7.86-11.85-10.63-12.32-8-25.4-8.82-38.86-2.37C19.65,260,14.89,267.79,14.65,276.1A19.42,19.42,0,0,0,24.9,294.23c2,1.13,4,2.4,6,3.74l2.88,1.9.65.41-.64.42A12.66,12.66,0,0,1,26.69,302.68ZM68.64,192c-.94.81-1.89,1.66-2.86,2.54a84.89,84.89,0,0,1-9,7.35A83.56,83.56,0,0,1,47,207.18c-1.73.86-3.52,1.74-5.23,2.66l-3.33,1.79c-4.38,2.34-8.91,4.77-13.2,7.4A51.57,51.57,0,0,0,1.77,271.66c2.08,11.72,6.31,19.87,13.33,25.64,5.44,4.46,12.62,5.65,17.44,3l-2.22-1.46c-2-1.34-3.91-2.6-5.91-3.7a20.4,20.4,0,0,1-10.76-19c.26-8.68,5.24-16.82,12.41-20.26,13.8-6.6,27.21-5.78,39.84,2.44C70.25,261.1,74,265,77.93,269c1.77,1.84,3.61,3.73,5.59,5.64,12.94-16.7,33-29.52,55.06-35.23,12.28-3,24.94-5.14,37.2-7.24,4.84-.83,9.84-1.69,14.75-2.58l.11,0c1.52-.28,3.09-.56,3.69-1.48a2.38,2.38,0,0,0,.18-1.91c-.4-1.78-1.95-4.25-3.12-4.48-11.82-2.35-17.62-10.3-17.72-24.3q-.1-11.92-.2-23.86c-.2-23.63-.4-48.06-.45-72.09-.05-20.4,7.41-34.71,22.78-43.78,1.6-.94,2.12-4.66,2.4-6.75a11.62,11.62,0,0,0-4.43-1.82c-21.58,1-46.3.38-65.29-18.63a16.6,16.6,0,0,0-3-2.11l-1.16-.7c0,1.5,0,2.94,0,4.34,0,3.69,0,7.18.06,10.61.07,2.09-.32,3.5-1.23,4.42A5.47,5.47,0,0,1,119,48.34c-10.59-.16-18.75-.16-26.48,0-2,0-3.35-.35-4.25-1.23s-1.34-2.39-1.31-4.72c0-4,0-8.09.07-12,.09-9,.18-18.29-.36-27.42C71,25.18,48.44,37.64,19.52,40a5.25,5.25,0,0,0-4.3,2.93,3.29,3.29,0,0,0,.44,3.43c.92,1.2,2.78,1.9,4.41,2.53l.42.16c11.39,4.39,17.39,13.07,17.84,25.82.34,9.56.49,19.28.64,28.68.12,8,.25,16.17.49,24.25.32,10.89-4.24,18.5-13.95,23.25-1,.51-1.75,2-2.43,3.39-.26.53-.52,1.07-.81,1.58.39.21.78.43,1.15.65A7,7,0,0,0,26.61,158c28.52.09,52.18,0,74.47-.26,1,0,2-1.05,3.07-2.05.39-.38.79-.76,1.2-1.11-.31-.34-.6-.71-.88-1.07a6.66,6.66,0,0,0-2.59-2.38c-11.9-3.95-14.82-7.87-14.88-20,0-8.76,0-17.67,0-26.29,0-11.54,0-23.47-.09-35.2,0-2.25.43-3.75,1.42-4.73s2.56-1.44,5.13-1.4c4.46.07,9,.06,13.41,0,2.85,0,5.69,0,8.53,0,8.61,0,9,.48,9,9.3-.09,20.54,0,41.41,0,61.6.09,31.43.18,63.93-.31,95.9v.57l-.56-.08C92.92,226.55,75.45,214.19,68.64,192Z"/></g></g></svg>