<svg xmlns="http://www.w3.org/2000/svg" viewBox="0 0 172.83 157.22"><defs><style>.cls-1{fill:#fff;}</style></defs><g id="Layer_2" data-name="Layer 2"><g id="Layer_1-2" data-name="Layer 1"><path class="cls-1" d="M67.8,157.22l-.35-.42c-10.77-12.93-25.16-21.68-39.08-30.15l-2.14-1.31c-2.32-1.34-5.16-1.57-8.17-1.81-3.77-.31-7.66-.62-10.76-3.25l-.4-.34.36-.38c.33-.35.64-.73,1-1.1a9.8,9.8,0,0,1,2.37-2.31c7.71-4.73,11.39-11.87,11.27-21.83-.08-6.79-.12-13.68-.15-20.36-.07-11.65-.13-23.71-.44-35.55C21,26.92,15.46,17.86,4.9,11.49l-.64-.38c-2.38-1.41-5.08-3-4-6.92S4.28.53,6.72.67c.49,0,.94.06,1.44.06C28.83.61,49.85.55,70.18.49,101.44.4,133.76.3,165.51,0a11.28,11.28,0,0,1,4.17,1.38c.57.28,1.17.57,1.75.79l.47.19-.2.47c-.28.7-.52,1.53-.75,2.33-.52,1.84-1.06,3.75-2.38,4.67-9.39,6.49-14,15.73-14,28.23q0,6.77,0,13.53c0,13.23-.06,26.91.13,40.37a46.15,46.15,0,0,0,2.37,13c1.31,4.19,4.49,6.78,10.32,8.42h0c1.43.41,2.53,1.75,3.59,3.05.45.55.92,1.12,1.4,1.6l.44.43-.53.34c-.57.37-1.15.83-1.72,1.28-1.3,1-2.64,2.12-4.13,2.24-36,2.81-72.79,8.93-98.26,34.51ZM8.35,119.84c2.8,2.12,6.35,2.41,9.79,2.69,3,.24,6.08.49,8.61,2l2.14,1.31c13.84,8.42,28.14,17.13,39,30,25.68-25.49,62.5-31.61,98.5-34.41,1.18-.1,2.4-1.08,3.59-2,.42-.34.86-.69,1.3-1-.36-.4-.71-.82-1-1.24-1-1.18-2-2.4-3.08-2.72h0c-3.85-1.08-9.17-3.19-11-9.08A47.37,47.37,0,0,1,153.71,92c-.19-13.46-.16-27.15-.13-40.38q0-6.77,0-13.53C153.61,25.2,158.32,15.7,168,9c1-.71,1.52-2.44,2-4.11.19-.66.38-1.34.61-2-.46-.2-.91-.42-1.36-.64A10.45,10.45,0,0,0,165.49,1c-31.73.3-64.05.4-95.31.49-20.33.06-41.35.12-62,.24l-1.5-.06C4.17,1.52,2,1.39,1.2,4.45s1.2,4.4,3.57,5.8l.65.38C16.29,17.19,22,26.53,22.26,38.38S22.63,62.3,22.7,74c0,6.67.07,13.57.15,20.35C23,104.65,19.13,112.08,11.1,117A9.3,9.3,0,0,0,9,119.09C8.77,119.35,8.57,119.6,8.35,119.84ZM112,123.25l-.52,0c-11.94-.44-48.26-1.77-47.4-25.37l-.06-24.25Q64,45.28,63.9,17c0-2.74.55-4.55,1.77-5.69s2.85-1.52,5.22-1.35c2.55.17,5.18.23,7.72.29,14.47.35,28.13.68,32.16,18.73A68.51,68.51,0,0,1,112,41.43c.09,19.36.08,38.88.07,57.76q0,11.73,0,23.54ZM70,10.88A5,5,0,0,0,66.36,12c-1,.94-1.47,2.51-1.46,5q.1,28.32.16,56.64l.06,24.28c-.81,22.29,33.73,23.88,45.92,24.33q0-11.55,0-23c0-18.88,0-38.4-.07-57.76a67.12,67.12,0,0,0-1.19-12.29c-3.85-17.27-17.14-17.59-31.2-17.93-2.56-.06-5.19-.12-7.77-.29C70.52,10.9,70.22,10.88,70,10.88Z"/></g></g></svg>