<svg xmlns="http://www.w3.org/2000/svg" viewBox="0 0 275.48 223.77"><defs><style>.cls-1{fill:#090515;}</style></defs><g id="Layer_2" data-name="Layer 2"><g id="Layer_1-2" data-name="Layer 1"><path class="cls-1" d="M2.62,223.77l-.47-1.08c-.32-.75-.63-1.36-.9-1.9a7.58,7.58,0,0,1-1-2.58c-1.27-13.42,1.59-22.57,9-28.81,7.07-6,14.84-11.35,22.35-16.56,3.27-2.26,6.65-4.61,9.94-7l.38-.28.3.37c14,17.31,30.18,21.72,52.43,14.31,3.31-1,3.56-3.65,3.55-7.25q0-13.46,0-26.89c0-22.81,0-46.4,0-69.59a4.54,4.54,0,0,0-.93-3.36,4.45,4.45,0,0,0-3.26-1h0q-11.74,0-23.5,0c-13.43,0-27.31,0-41,.13-8.91.1-11.89,3-12.76,12.16a11.83,11.83,0,0,0,0,1.21,4.8,4.8,0,0,1-.59,2.94c-.59.77-2.65,3.27-4.6,3.27h-.06c-1.55,0-4-2.47-4.06-4-.29-9.77-.29-19.74,0-30.51,0-1.43,2.35-3.36,3.83-3.54a6.75,6.75,0,0,1,4.11,1.39,1.56,1.56,0,0,1,.67,1C16.49,62,20.22,62,24.57,62H42.74c35.94,0,73.09,0,109.63.12,2.91,0,8.74.69,10,3.17,2.07,4-1.29,6-4,7.55-.73.43-1.41.83-2,1.26l-.29-.41.29.41c-10,7.18-14.9,17.18-14.9,30.56q0,8,0,16.07c0,11.94,0,24.28,0,36.42-.13,11.21,5.44,15.9,13.15,22.38l1.45,1.23-.7,2.32-.33,0c-.56.07-1.14.17-1.72.28a10.73,10.73,0,0,1-3.9.25c-27.52-6-49,10.45-69.85,26.34-4.44,3.39-9,6.9-13.56,10.07a7.5,7.5,0,0,1-6.6.4c-2.86-1.52-5.65-3.27-8.34-5-3-1.87-6.08-3.8-9.25-5.41a73.2,73.2,0,0,0-16.49-6.36C12.15,200.6,8,210.83,3.5,221.65ZM41.78,167c-3.18,2.28-6.43,4.54-9.57,6.72C24.72,178.86,17,184.23,9.93,190.16s-9.88,14.89-8.64,28a6.7,6.7,0,0,0,.86,2.23l.44.89c4.41-10.72,9-21.8,22.93-18.51a73.86,73.86,0,0,1,16.71,6.44c3.22,1.63,6.32,3.57,9.33,5.46,2.68,1.68,5.45,3.41,8.28,4.91a6.52,6.52,0,0,0,5.56-.33c4.5-3.16,9.09-6.66,13.52-10,21-16,42.7-32.6,70.66-26.53a10,10,0,0,0,3.52-.25c.48-.09,1-.18,1.46-.25l.33-1.06-.95-.8c-7.63-6.41-13.65-11.48-13.51-23.16.09-12.13.07-24.47,0-36.4q0-8,0-16.08c0-13.54,5.16-24.1,15.32-31.37a24.1,24.1,0,0,1,2.1-1.31c3.26-1.91,5.13-3.28,3.61-6.23-.87-1.69-5.35-2.62-9.13-2.63C115.83,62.93,78.67,63,42.74,63H24.57c-4.44,0-9,0-9.55-6.63-.13-.44-2.38-1.65-3.66-1.5-1.08.14-2.92,1.75-2.95,2.57-.27,10.75-.27,20.71,0,30.46,0,1,2.05,3,3.08,3s2.74-1.42,3.85-2.88a4.25,4.25,0,0,0,.38-2.33c0-.45,0-.89,0-1.3.92-9.66,4.39-13,13.75-13.07,13.66-.16,27.55-.15,41-.13q11.74,0,23.5,0h0a5.34,5.34,0,0,1,4,1.28,5.41,5.41,0,0,1,1.22,4.07c-.06,23.19,0,46.77,0,69.57q0,13.45,0,26.9c0,3.07,0,6.89-4.24,8.2C72.77,188.63,55.84,184.1,41.78,167Z"/><path class="cls-1" d="M117.27,53.63l-.33-.37c-.18-.19-.41-.41-.67-.66A16.22,16.22,0,0,1,113.91,50c-7.45-11.19-18.55-16.2-35-15.8-12.21.31-24.63.32-36.64.33-4.91,0-9.82,0-14.72,0-2,0-3.94-.16-5.17-1.41a5.18,5.18,0,0,1-1.24-3.91c.08-4.94,3.57-5.13,6.38-5.29l10.17-.53c12.8-.67,26-1.35,39-2.62,9.77-1,17.9-6.19,23.52-15.11a22.4,22.4,0,0,1,3.07-3.6c.5-.52,1-1,1.5-1.58l.42-.47.36.51a39,39,0,0,0,26.2,16.54c10.79,2.24,13.47-3.78,17.19-12.13.43-1,.86-1.94,1.32-2.93l.42-.89.47.85c4.47,7.94,1,23.08-6.75,29.47a73.6,73.6,0,0,1-6.14,4.36,70.56,70.56,0,0,0-6,4.27c-3.43,2.82-6.65,5.83-10.06,9-1.49,1.39-3,2.8-4.56,4.22ZM80.8,33.13c15.75,0,26.57,5.2,33.94,16.27A15.58,15.58,0,0,0,117,51.88l.36.35c1.43-1.31,2.82-2.61,4.19-3.89,3.43-3.2,6.66-6.22,10.11-9.06a71.44,71.44,0,0,1,6.12-4.34,68.57,68.57,0,0,0,6.06-4.3c7.14-5.88,10.51-19.51,7-27.29l-.89,2c-3.61,8.11-6.72,15.11-18.29,12.7A39.85,39.85,0,0,1,105.13,1.59L104,2.75a21.52,21.52,0,0,0-2.93,3.43c-5.8,9.2-14.19,14.58-24.27,15.57-13,1.28-26.22,2-39,2.62-3.4.18-6.79.35-10.18.54s-5.37.56-5.43,4.3h0a4.27,4.27,0,0,0,.95,3.2c1,1,2.72,1.1,4.45,1.11,4.91,0,9.82,0,14.72,0,12,0,24.43,0,36.63-.33Z"/><path class="cls-1" d="M210.43,196.66l.76-.93c.6-.72,1.09-1.43,1.53-2.06a7.54,7.54,0,0,1,2.6-2.75c11.22-5.39,16.7-14.82,16.77-28.83.14-26.44,0-53.32-.12-79.32l-.08-18.09c0-6.3-2.23-11-6.74-14.36a5.4,5.4,0,0,1-1.52-2.62c-.16-.44-.31-.85-.48-1.22l-.22-.45.46-.21c.38-.18.76-.41,1.16-.65a5.93,5.93,0,0,1,2.86-1.12h0c14.24-.12,28.53-.13,42.47,0a7.54,7.54,0,0,1,3.19,1.07c.55.27,1.12.55,1.74.8l.67.27-.49.53c-.44.49-.81,1-1.16,1.43a5.23,5.23,0,0,1-2.15,2c-5.23,1.81-6.29,5.7-6.26,11s.06,10.5.1,15.75c.14,17.93.28,36.48-.22,54.71-.4,36.44-21.47,61.93-53.67,64.94ZM224.25,46.5c.11.28.22.58.32.86a4.78,4.78,0,0,0,1.18,2.16c4.78,3.56,7.11,8.52,7.14,15.16L233,82.76c.13,26,.26,52.89.12,79.33-.07,14.24-5.9,24.24-17.34,29.73a7,7,0,0,0-2.21,2.42c-.26.37-.54.78-.85,1.19,31-3.45,51.22-28.38,51.61-63.84.5-18.22.36-36.76.22-54.69q-.06-7.87-.1-15.75c0-4.95.8-9.83,6.93-11.94A4.63,4.63,0,0,0,273,47.55c.23-.31.49-.63.77-1L272.63,46a6.81,6.81,0,0,0-2.76-1c-13.93-.12-28.22-.12-42.45,0h0a5.25,5.25,0,0,0-2.36,1Z"/><path class="cls-1" d="M165.22,146.39V134.3c0-9.27,0-18.16,0-27v-.55c0-3.78,0-7-3.89-9.38a3.12,3.12,0,0,1-1.77-3.11,3.91,3.91,0,0,1,3.1-3c9.31-2.26,17.15-7,24.66-14.84l.77-.8.09,1.1c.82,9.33.71,18.45.61,27.27,0,5.12-.11,10.43,0,15.76,0,6.79,2.21,10.4,7.33,12.08h0a4.43,4.43,0,0,1,2.37,2.77.93.93,0,0,1-.12.74,4.45,4.45,0,0,1-2.1,1.78c-7.7,2.35-15.45,4.64-23.65,7.06Zm22.06-68.48c-7.42,7.54-15.2,12.1-24.39,14.33a2.92,2.92,0,0,0-2.34,2.13,2.14,2.14,0,0,0,1.29,2.1c4.42,2.62,4.4,6.5,4.38,10.24v.55c0,8.89,0,17.77,0,27v10.75l6.12-1.81c8.2-2.43,15.94-4.71,23.64-7.07a3.42,3.42,0,0,0,1.53-1.34,3.51,3.51,0,0,0-1.7-2h0c-7.08-2.33-8-8.18-8-13-.11-5.35,0-10.66,0-15.79C187.89,95.54,188,86.81,187.28,77.91Z"/><path class="cls-1" d="M196.22,126.41v-.66c-.05-5.34,0-10.51,0-15.51.06-8.49.11-16.51-.19-25.16a12.24,12.24,0,0,0-3.31-7.19c-1.56-1.66-2.18-3-1.89-4.13s1.16-1.69,2.76-2.19A57.86,57.86,0,0,0,218,57.28l.27-.27L220,58V70.09c0,9.54,0,19.42,0,29.13,0,5.82,1.11,10.18,6.72,12.54a3.32,3.32,0,0,1,2.32,3,3,3,0,0,1-2.3,2.59c-6.89,2.25-13.83,4.24-21.18,6.35-2.83.81-5.72,1.63-8.66,2.49Zm22.21-68.15a59.06,59.06,0,0,1-24.52,14.27c-1.22.38-1.92.88-2.08,1.49s.36,1.82,1.65,3.19A13.31,13.31,0,0,1,197.06,85h0c.3,8.67.25,16.69.19,25.19,0,4.8-.07,9.74,0,14.84,2.73-.8,5.4-1.56,8-2.32,7.34-2.1,14.27-4.09,21.15-6.34,1-.32,1.58-.93,1.61-1.67a2.36,2.36,0,0,0-1.7-2.07c-6.49-2.72-7.36-8.08-7.34-13.47,0-9.71,0-19.58,0-29.12V58.58Z"/></g></g></svg>