<svg xmlns="http://www.w3.org/2000/svg" viewBox="0 0 314.45 386.16"><defs><style>.cls-1{fill:#090515;}</style></defs><g id="Layer_2" data-name="Layer 2"><g id="Layer_1-2" data-name="Layer 1"><path class="cls-1" d="M53.44,386.16,53,386c-38.37-12.7-49.7-54.17-53-77.75V289.19c5.64-44.28,21.67-75.84,49-96.53a51.72,51.72,0,0,1,34.8-11.49l.94,0-.55.76c-.65.9-1.25,1.72-1.83,2.49-1.14,1.55-2.14,2.89-3.05,4.3A18.42,18.42,0,0,0,91,217.59c13.18,3.06,26.46.44,40.6-8,16.45-9.66,40.19-35.11,40.08-55.83.24-11.26.06-22.72-.11-33.8-.07-4.88-.15-9.76-.19-14.64-.09-11.09-4.42-16-14.92-17.14-26.54-2-53.65-2.65-79.86-3.31-12-.3-24.51-.62-36.76-1-6.18-.16-9.56-2.5-11.65-8.07C24.35,65.49,17.47,58.9,7.73,56.16c-1.46-.41-2.55-1.85-3.6-3.23a19,19,0,0,0-1.4-1.72L2.52,51l.76-2.41.3-.05C13,47,22.71,47,32.07,47c2.81,0,5.63,0,8.45,0,4.6-.1,6.76,1.93,7.12,6.53.75,9.4,1.63,9.9,10.88,12.42,20.42,5.57,41.57,5.94,63.26,5.87,14.16,0,32.69-.5,50.53-3.51,17.63-3,32.84-12.95,44-28.84a1.63,1.63,0,0,1,.9-.52c.23-.08.53-.18.92-.35l.58-.24.11.62c.09.51.2,1,.31,1.51a14.64,14.64,0,0,1,.47,3.1q.21,14.15.34,28.29.1,9.58.22,19.17.36,30.21.8,60.43c0,10.94,2.51,18.73,14.69,21.23h0c3.52.89,5,2.67,5,5.94,0,2.71,0,6.42-4.46,7.46-22.26,5.26-42.83,15.58-62.74,25.55q-5.9,3-11.82,5.89c-8.29,4.41-17.12,8.7-25.65,12.86-38.38,18.67-78.06,38-95.67,78.79a82.79,82.79,0,0,0-5.62,46.17c1.65,12,9.9,19.83,19.71,28.13l.31.26Zm28.46-204a50.58,50.58,0,0,0-32.28,11.31C22.5,214,6.6,245.31,1,289.26V308.2c3.29,23.2,14.42,64.05,52,76.74l.49-.93c-9.47-8-18.06-16.3-19.74-28.48a83.7,83.7,0,0,1,5.69-46.71c17.76-41.16,57.61-60.55,96.15-79.3,8.53-4.15,17.35-8.44,25.63-12.85,4-1.95,7.9-3.92,11.84-5.89,19.95-10,40.58-20.35,62.95-25.63,3.38-.8,3.66-3.31,3.69-6.5,0-2.79-1.17-4.18-4.23-5-13.59-2.78-15.47-12.31-15.48-22.2q-.42-30.19-.8-60.42-.12-9.58-.22-19.17-.15-14.15-.34-28.29a14.69,14.69,0,0,0-.44-2.9l-.21-1-.41.15a2.07,2.07,0,0,0-.43.17c-11.29,16.09-26.72,26.2-44.62,29.23s-36.5,3.47-50.7,3.52c-21.76.08-43-.3-63.52-5.9-9.57-2.61-10.82-3.33-11.61-13.31-.33-4.12-2-5.69-6.12-5.61-2.82,0-5.65,0-8.47,0-9.21,0-18.73-.07-28,1.46l-.4,1.26c.44.49.87,1,1.28,1.59,1,1.25,1.94,2.54,3.07,2.86C18.06,58,25.17,64.82,29.13,75.39c1.94,5.19,5,7.27,10.74,7.42,12.25.43,24.71.75,36.76,1,26.22.66,53.34,1.35,79.92,3.31,11,1.15,15.73,6.57,15.83,18.13,0,4.88.12,9.76.19,14.64.17,11.09.35,22.55.11,33.82.11,21.36-23.49,46.65-40.57,56.68-14.36,8.58-27.88,11.24-41.34,8.13A19.44,19.44,0,0,1,78.48,188.2c.93-1.43,1.93-2.78,3.09-4.34l1.26-1.71Z"/><path class="cls-1" d="M273,98.69c-.23,0-.46,0-.71,0a8.7,8.7,0,0,0-.93-.05h-.47l0-.47c-.77-10.68-.72-21.61-.67-32.17,0-7.4.07-15-.18-22.54-.06-5.05,2.27-7.45,6.06-9.7,10.22-6.26,16-14.94,22.65-25,1.53-2.3,3.11-4.69,4.78-7.09l.91-1.31v71l7.94-3.17.23.3c1.5,2,2.09,3.69,1.8,5.14a4.78,4.78,0,0,1-2.51,3.06c-11.59,6.79-23.46,13.55-34.94,20.08l-3,1.74A1.79,1.79,0,0,1,273,98.69Zm-1.17-1.08.55,0a2.19,2.19,0,0,0,1,0l3-1.74c11.47-6.53,23.34-13.28,34.92-20.07a3.78,3.78,0,0,0,2-2.4c.22-1.09-.24-2.41-1.39-4l-8.6,3.44V3.52c-1.33,1.95-2.61,3.88-3.86,5.76C293.1,19,287,28.2,276.58,34.58c-4.17,2.47-5.62,4.78-5.57,8.81.25,7.51.21,15.16.18,22.57C271.14,76.36,271.09,87.11,271.83,97.61Z"/><path class="cls-1" d="M225,96.77l0-.59c-1-13-.74-26.32-.54-39.19.09-5.61.18-11.41.17-17.11.05-2.71,2.16-6.33,4.33-7.48,8.21-4.32,14.74-10.9,20.55-20.7A54.85,54.85,0,0,1,257.62.86l.86-.86V69L267,65.66l.2.43c1.86,4.06,1.26,7-1.79,8.79-10.6,6.17-21.46,12.3-32,18.23l-4.79,2.71a5.85,5.85,0,0,1-1.81.54c-.37.07-.79.15-1.26.27ZM257.48,2.45a54.72,54.72,0,0,0-7.18,9.76c-5.91,10-12.57,16.67-20.94,21.08-1.87,1-3.75,4.25-3.8,6.6,0,5.69-.08,11.5-.17,17.12-.2,12.65-.4,25.72.49,38.52l.74-.15a5.21,5.21,0,0,0,1.51-.43h0l4.79-2.71c10.5-5.93,21.35-12.06,32-18.22,2.46-1.43,3-3.75,1.57-7.08l-9,3.52Z"/></g></g></svg>