<svg xmlns="http://www.w3.org/2000/svg" viewBox="0 0 64.43 66.56"><defs><style>.cls-1{fill:none;stroke:#070313;stroke-miterlimit:10;}</style></defs><g id="Layer_2" data-name="Layer 2"><g id="Layer_1-2" data-name="Layer 1"><path class="cls-1" d="M60.77,45.58c-1.92-5.13-7.72-7.52-12.88-8.54,2.2-1.08,4.18-1,6.14-1.1,5.93-.33,9.71-4.3,9.9-10.26.1-3.41-7.46-13.61-10.84-13.79-2.94-.15-5.93.86-9,1.37C44.81,2.8,41.79-.27,31.23.66,19.82,1.66,17.87,4.33,20.77,15,13.66,9.19,8.66,10.32,5,18.5a4.46,4.46,0,0,1-1.39,2c-3.28,2-3.69,4.84-2.56,8.2,1.24,3.69,3.12,6.61,7.51,6.89,2.51.16,5,.48,7.52.73a13.93,13.93,0,0,1-5.32,2.73c-6.43,2.06-8.9,5-6.39,11,1.79,4.28,6.32,7.44,9.75,11,.42.44,1.59.2,2.42.22,6.06.15,10-2.58,10.81-9.55l1.24,1.11c-1,4.37-2,8.73-3,13.22H39.29L36.66,53c1.1.27,1.37.68,1.48,1.13,1.1,4.42,4,6.65,8.44,7.17,4.19.5,7.12-.68,8.49-5a4.09,4.09,0,0,1,2.17-1.89C61.31,52.58,61.82,48.86,60.77,45.58Z"/></g></g></svg>