<svg xmlns="http://www.w3.org/2000/svg" viewBox="0 0 1496 385.98"><defs><style>.cls-1{fill:#090515;}</style></defs><g id="Layer_2" data-name="Layer 2"><g id="Layer_1-2" data-name="Layer 1"><path class="cls-1" d="M235,173C222.93,170.5,220,162.78,220,151.27q-.42-30.21-.8-60.43c-.2-15.82-.33-31.64-.56-47.46a29.41,29.41,0,0,0-.77-4.53c-1,.43-1.45.47-1.61.69-10.92,15.57-25.89,25.93-44.31,29.05-16.61,2.8-33.72,3.45-50.62,3.52-21.24.08-42.58-.22-63.39-5.89C48.42,63.64,47.41,63,46.65,53.35,46.3,49,44.34,47.2,40,47.28c-12.32.14-24.64-.53-36.86,1.53l-.57,1.83c1.57,1.66,2.88,4.28,4.77,4.81,10.58,3,17.14,10.1,20.8,19.89,2.1,5.6,5.51,7.6,11.2,7.74,38.87,1.38,77.87,1.5,116.65,4.37,11.07,1.15,15.28,6.58,15.37,17.63.14,16.15.64,32.3.3,48.45.11,20.78-23.1,46.13-40.33,56.26-12.62,7.54-26.1,11.51-41,8.07-13.89-3.22-19.76-17.68-12-29.61,1.39-2.13,3-4.13,4.89-6.8a51.23,51.23,0,0,0-34.47,11.38C17.61,216.45,4.8,251.3,0,289v19c4.58,32.38,19.26,66.28,52.7,77.35l.88-1.65c-9.11-7.72-18.16-16-19.87-28.44a83.11,83.11,0,0,1,5.65-46.44c21.7-50.3,76.74-68.05,121.56-91.91,24.27-11.89,48-25.17,74.67-31.47,3.79-.89,4-3.79,4.07-7S238.07,173.75,235,173Z"/><path class="cls-1" d="M1348.49,168.6c1.31,2.88,2,4.36,2.64,5.83,2.94,6.59.6,12.76-5.94,15.66-7.81,3.46-16.41.32-19.22-7.81a46.16,46.16,0,0,1-2.25-14.6c-.19-30.5-.14-61-.06-91.48,0-6.81.13-13.66.82-20.43,1.3-12.74,7.74-22.32,18.8-28.84,2.55-1.51,6-3,2.89-7.78-15.44,4.94-27.93,15.62-42.14,23A286.41,286.41,0,0,1,1277,54.42c-2.88,1.19-6.33,1-10.6,1.58q14.85,9.7,14.94,25.58c.18,30.78,0,61.57-.28,92.35-.08,8.5-4.41,14.24-12.59,17.29-2,.76-3.36,3.45-5,5.26,1.81,1.16,3.48,2.9,5.46,3.41,64.72,17.75,131.36,49.69,168.9,107.65,14.52,23.85,15.61,50.64-5.46,71.19-1.87,2-2.91,4.81-4.33,7.25h4c48.68-36.83,40.24-107.35,9-153C1419.19,199.57,1386.13,180,1348.49,168.6Z"/><path class="cls-1" d="M1478.46,155.89c-7.07-2.55-12.44-7.22-15.17-14.18-1.52.43-1.65.23-2.37,1.12-7.89,10.57-18.67,15.84-31.61,16.42-12,.53-24,.42-35.93.56-3,0-5.65,0-5.59,4.34s2.34,4.94,5.8,5c11.47.09,23,.47,34.43.42,13-.07,25.3,1.44,34,12.47,14.19-10.3,14.21-10.22,25.11-12.35A87.72,87.72,0,0,0,1496,167v-5C1490.64,158.56,1484.35,157.84,1478.46,155.89Z"/><path class="cls-1" d="M932,219.77c-13.26-2.64-17.24-12.3-17.33-23.82-.24-32-.58-64-.65-95.94,0-18.25,5.88-33.52,22.54-43.34,1.77-1.05,2.32-4.7,2.66-7.24.07-.56-3.08-2-4.86-2.26-23.79,1-47-.48-65-18.49-1.31-1.26-3.07-2.06-5.06-3.37,0,5.9-.12,10.89,0,15.87.11,3.52-1.08,5.24-4.85,5.18-8.83-.14-17.66-.18-26.49,0-4.1.09-5.1-1.74-5.05-5.44,0-13.64.53-27.33-.38-40.94C811.34,23.74,788,35.74,760,38c-4,.43-6.42,4.32-4.22,7.17,1.09,1.41,3.24,2.15,5,2.85,11.64,4.48,17.1,13.39,17.52,25.37.62,17.63.6,35.29,1.13,52.92.31,10.68-4,18.08-13.68,22.79-1.74.85-2.5,3.7-3.71,5.63,1.68.78,3.36,2.22,5,2.23,24.82.08,49.65,0,74.47-.26,1.68,0,3.33-2.35,5-3.6-1.33-1.37-2.43-3.44-4-4-11.45-3.81-14.47-7.5-14.53-19.49-.11-20.5.09-41-.12-61.5-.05-4.68,2.07-5.68,6-5.62,7.32.12,14.64,0,22,0,8.31,0,8.53.27,8.53,8.8-.24,52.51.5,105-.29,157.5-26.38-3.71-47.22-13.72-54.71-39.28-3.81,3.23-7.82,7.25-12.44,10.35s-9.95,5.29-14.91,8c-5.55,3-11.18,5.91-16.55,9.2a52.08,52.08,0,0,0-23.72,53.14c1.78,10.08,5.35,19.25,13.5,25.95,5.84,4.79,13.67,5.93,18.7,2.6-3.08-2-5.85-4-8.83-5.62-16.2-8.94-12.09-31.83,1.63-38.39s27-5.63,39.35,2.4c6.35,4.14,11.3,10.42,17.94,16.74,13.29-17.37,34-30,55.13-35.49,17.1-4.13,34.59-6.65,51.92-9.81,2.46-.45,5.09-.88,4.38-4C935.05,222.78,933.44,220.07,932,219.77Z"/><path class="cls-1" d="M648.37,82.3c-10.51-3.58-20-10.12-30.51-15.65,0,5-.11,10,0,15,.1,3.21-1.15,4.5-4.4,4.43-6.32-.14-12.67-.26-19,0-4.71.22-6-1.73-6-6.19.23-15.84.05-31.72.08-47.56C569.9,54.5,553.47,67,524,70.29c-2.84.33-5,.85-5,4.67,0,3.45.69,5.31,4.32,6.61s8.32,3.28,10.06,6.37a43.66,43.66,0,0,1,5.78,17.75c1,13.42.69,26.95.7,40.43,0,7.91-3.4,13.95-10.41,18-1.86,1.09-2.93,3.51-4.36,5.32,2.06.7,4.11,2,6.16,2,22.16.15,44.33.09,66.49.09,1,0,2.14.27,3-.12,1.24-.59,3-1.52,3.17-2.55s-1-2.65-1.94-3.63c-.74-.77-2-1-3.14-1.41-6.62-2.29-10-7-10-13.91-.1-14.33,0-28.66-.06-43,0-4,1.82-5,5.71-4.68a113,113,0,0,0,17.45,0c4.53-.34,6.08,1.47,6.08,5.62q0,68,0,136c0,4.1-2.06,6.08-6.12,6.15-17.77.27-23.55-20.1-31.72-32.66a73.78,73.78,0,0,1-6.28,4.73c-6.63,4.06-13,9-20.13,11.7-24.46,9.17-30.55,27.83-29.16,49.86.08,1.3.87,2.55,1.33,3.83h1.38c3.83-11.64,6.83-26.92,22.6-22.77a81.87,81.87,0,0,1,31.69,16.49c25.24-22.26,54-31.75,87.29-27,1.87.23,3.9-.84,5.85-1.3-1.13-1.55-1.94-3.61-3.44-4.57-7.35-4.71-11-11.29-11-20,0-33,0-66,.07-99,.36-34.08,25.53-30.27,21.36-41C670.14,86.37,658.75,85.83,648.37,82.3Z"/><path class="cls-1" d="M1093.79,195.49c-5-1.41-9.1-3.76-10.67-8.76a47,47,0,0,1-2.38-13.14c-.27-18-.12-35.94-.11-53.9,0-11.88,4-21.64,14.18-28.65,1.72-1.19,2-4.46,3-6.78-1.91-.75-3.79-2-5.73-2.14-52.42.5-104.91.43-157.36.73-2.78,0-6.32-1.07-7.44,3.1-1,3.86,1.81,5.15,4.45,6.74C942,98.89,948,108,948.28,120c.49,18.63.37,37.28.6,55.92.11,9.51-3.16,17.13-11.52,22.26-1.27.78-2.15,2.2-3.21,3.33,5.38,4.56,13.44,1.87,18.87,5,14.84,9.05,30,17.92,41.34,31.56,26-26.09,63.47-31.91,98.57-34.65,2-.17,3.75-2.25,5.63-3.45C1097,198.44,1095.65,196,1093.79,195.49Zm-55.73,8.87c-16.63-.61-47.71-3.23-46.91-24.85Q991,139,990.92,98.58c0-4.44,1.51-6.89,6.46-6.54,16.62,1.1,34.76-2.25,39.42,18.63a68.61,68.61,0,0,1,1.21,12.38C1038.12,150.28,1038.06,177.08,1038.06,204.36Z"/><path class="cls-1" d="M398.74,179.53c3-2.16,8.19-3.65,5.86-8.17-1.08-2.1-6.25-2.89-9.57-2.91-42.48-.18-85-.12-127.45-.11-4.5,0-8.88.18-9.4-6.17-.07-.82-2.85-2.12-4.22-1.95s-3.36,1.95-3.39,3.06c-.26,10.15-.28,20.32,0,30.48,0,1.29,2.3,3.48,3.58,3.51s3.19-1.68,4.26-3.07c.69-.9.39-2.56.52-3.89.87-9.23,3.88-12.5,13.26-12.62,21.48-.25,43-.06,64.47-.13,3.44,0,4.8,1.51,4.72,4.85-.07,32.15,0,64.31,0,96.47,0,3.32-.08,6.56-3.89,7.73-21.66,7.22-38.51,3.41-53-14.47-10.88,7.83-22.15,15-32.26,23.5-8.5,7.16-9.84,17.7-8.82,28.39.11,1.14.91,2.22,1.82,4.32,4.63-11.21,8.81-22.56,22.79-19.28a74.79,74.79,0,0,1,16.6,6.4c6.06,3.07,11.59,7.19,17.6,10.37a7,7,0,0,0,6.09-.37c25.2-17.67,50-43.82,83.78-36.48,1.73.32,3.65-.34,5.48-.54l.51-1.69c-8.33-7-14.68-11.75-14.53-23.77.13-17.5,0-35,0-52.49C383.63,197.72,388.15,187.11,398.74,179.53Z"/><path class="cls-1" d="M1270.5,109.52c-1.55-.84-3.08-2.39-4.64-2.41-19.31-.23-38.62-.24-57.92-.29-3.29-.26-7.42.07-8.75,3.52.54,3.28,5.89,4.83,8.31,6.85,6.43,5,6.74,12.41,6.78,19.51.21,30.13.42,60.27,0,90.4-.73,40.48-31,31.43-23.3,43.87,11.61-5,23.75-8.86,34.2-15.6,19.62-13.27,27.87-33.35,28.69-56.43.81-22.6,1-45.24,1-67.86,0-8.91,2.9-15.07,12.1-17.49C1268.39,113.21,1269.33,110.92,1270.5,109.52Z"/><path class="cls-1" d="M470.07,150.42c-1.28,0-2.54,1.12-3.81,1.71.59,1.25.87,2.92,1.85,3.65,5,3.73,6.91,8.84,6.94,14.77.14,32.47.36,64.94.2,97.41-.06,12.77-4.7,23.34-17.06,29.28-1.39.67-2.2,2.55-3.95,4.68,35-3.27,52.85-31.66,53.22-64.46.65-23.47.23-47,.12-70.45,0-5.26.95-9.52,6.59-11.46,1.08-.38,1.78-1.83,3.11-3.3-1.9-.76-3.32-1.82-4.74-1.84Q491.3,150.23,470.07,150.42Z"/><path class="cls-1" d="M745.74,186.19c-1.91-5.13-7.72-7.52-12.88-8.54,2.2-1.08,4.18-1,6.14-1.09,5.93-.34,9.72-4.31,9.9-10.27.11-3.41-7.46-13.61-10.84-13.79-2.93-.15-5.93.86-9,1.37.71-10.46-2.32-13.53-12.88-12.6-11.41,1-13.36,3.67-10.46,14.32-7.11-5.78-12.1-4.66-15.75,3.52a4.46,4.46,0,0,1-1.39,2c-3.28,2-3.69,4.84-2.56,8.2,1.24,3.69,3.12,6.61,7.51,6.89,2.52.16,5,.48,7.53.73a14,14,0,0,1-5.33,2.73c-6.43,2.06-8.89,5-6.39,11,1.8,4.28,6.32,7.44,9.75,11,.43.45,1.6.2,2.43.22,6.05.15,10-2.58,10.8-9.55l1.24,1.11c-1,4.37-2,8.73-3,13.22h13.65l-2.63-13.1c1.1.27,1.37.68,1.48,1.13,1.09,4.42,3.94,6.65,8.44,7.17,4.18.5,7.11-.68,8.48-5a4.08,4.08,0,0,1,2.18-1.89C746.28,193.19,746.79,189.47,745.74,186.19Z"/><path class="cls-1" d="M264.34,135.07c-.07,4.35,2.66,4.83,5.9,4.81,17.12-.08,34.25.07,51.36-.36,14.53-.37,26.91,3.29,35.38,16a24.67,24.67,0,0,0,3,3.25c5.11-4.66,9.69-9.18,14.64-13.26,3.83-3.15,8.34-5.48,12.17-8.63,7.61-6.28,11-21.06,6.64-28.84-4.41,9.48-6.58,18-19.06,15.35a39.49,39.49,0,0,1-26.52-16.74c-1.55,1.73-3.33,3.23-4.52,5.11-5.59,8.88-13.7,14.34-23.89,15.34-16.34,1.61-32.77,2.26-49.18,3.16C266.88,130.46,264.4,130.87,264.34,135.07Z"/><path class="cls-1" d="M270.86,97.87c1,0,1.8.24,2.28,0,12.69-7.23,25.38-14.43,38-21.82,3.46-2,2.6-4.75.57-7.46l-8.27,3.3V1.69c-8.79,12.63-14.84,24.44-27.59,32.24-4,2.38-5.87,4.69-5.81,9.24C270.61,61.38,269.55,79.74,270.86,97.87Z"/><path class="cls-1" d="M227.88,95.16c12.27-6.94,24.56-13.85,36.74-20.94,3.1-1.8,3.14-4.75,1.59-8.15l-8.73,3.43V1a53.77,53.77,0,0,0-8.11,10.74c-5.17,8.72-11.54,16.05-20.74,20.89-2.08,1.09-4,4.6-4.07,7,0,18.74-1,37.57.37,56.26A13.87,13.87,0,0,0,227.88,95.16Z"/><path class="cls-1" d="M1381.78,124.35a8.55,8.55,0,0,0,2.11-.38c11.12-6.3,22.31-12.49,33.25-19.09,1.84-1.11,2.6-4,3.87-6.07l-1.14-1.11-8.06,1.93V38.36l-1.55-1c-5.48,12.49-14.77,22.53-26.16,30.08-1.67,1.08-2.87,4.13-2.91,6.3-.24,15.49-.14,31-.1,46.49A26.13,26.13,0,0,0,1381.78,124.35Z"/><path class="cls-1" d="M1338.38,72.44c0,14.66,0,29.33,0,44a55,55,0,0,0,1,6.95c12.44-7.21,24.14-13.78,35.56-20.8,1.78-1.1,2.31-4.23,3.41-6.42l-1.13-1-8.36,3V36.34a32.6,32.6,0,0,0-6.5,8.29c-5.06,8.57-10.83,16.39-20.49,20.3C1338.4,66.35,1338.39,69.41,1338.38,72.44Z"/><path class="cls-1" d="M1202.65,164.51c-.05-2.87-.94-4.77-4.1-5.18-12.24-1.58-22.77-6-28.71-18-10.09,11.25-18.92,17.45-34.44,17.95q-17.7.6-35.4.42c-4.47,0-5.52,2-5.06,5.79s3.33,3.56,6,3.57c10.8,0,21.62-.23,32.42.07,13.39.37,26.83,1,35.09,12.11,6.19-3.49,11.8-7.19,17.86-9.87,3.7-1.64,8.06-1.84,12.17-2.43C1201.26,168.58,1202.71,167.47,1202.65,164.51Z"/><path class="cls-1" d="M438.62,238.18c-6.18-2-7.65-6.84-7.67-12.54-.32-14.59.68-28.32-.61-43-7.5,7.86-15.42,12.68-24.91,15-2.66.65-4,3.49-1.18,5.15,4.37,2.6,4.14,6.36,4.13,10.36,0,12.45,0,24.91,0,38.45,10.81-3.2,20.63-6.07,30.42-9.06.79-.25,2-1.48,1.88-1.9A4,4,0,0,0,438.62,238.18Z"/><path class="cls-1" d="M439.22,190.93c.48,13.9,0,26.53.15,40.68,10.56-3.08,20.28-5.72,29.84-8.84,2.67-.88,2.56-3.58-.06-4.68-6-2.52-7-7.35-7-13,.06-13.64,0-27.28,0-40.93L461,163.5a58.62,58.62,0,0,1-24.59,14.41c-3.27,1-3.1,2.91-.65,5.51A12.76,12.76,0,0,1,439.22,190.93Z"/></g></g></svg>